<svg xmlns="http://www.w3.org/2000/svg" viewBox="0 0 1200 800" role="img" aria-label="Company facility placeholder">
  <rect width="1200" height="800" fill="#eef5fb"/>
  <rect x="120" y="300" width="960" height="380" rx="12" fill="#b4d0ee"/>
  <rect x="120" y="300" width="960" height="28" rx="12" fill="#1f5aa8"/>
  <rect x="170" y="360" width="80" height="120" rx="6" fill="#d9e7f7"/>
  <rect x="290" y="360" width="80" height="120" rx="6" fill="#d9e7f7"/>
  <rect x="410" y="360" width="80" height="120" rx="6" fill="#d9e7f7"/>
  <rect x="530" y="360" width="80" height="120" rx="6" fill="#d9e7f7"/>
  <rect x="650" y="360" width="80" height="120" rx="6" fill="#d9e7f7"/>
  <rect x="770" y="360" width="80" height="120" rx="6" fill="#d9e7f7"/>
  <rect x="890" y="360" width="80" height="120" rx="6" fill="#d9e7f7"/>
  <rect x="440" y="480" width="320" height="200" fill="#528dd2"/>
  <rect x="560" y="520" width="80" height="132" rx="6" fill="#2f6fc0"/>
  <circle cx="250" cy="610" r="56" fill="#2f6fc0"/>
  <rect x="880" y="520" width="160" height="84" rx="12" fill="#339990"/>
  <g font-family="Segoe UI, Arial, sans-serif" fill="#0b335f" text-anchor="middle">
    <text x="600" y="120" font-size="46" font-weight="700">Bliss Pharmex</text>
    <text x="600" y="172" font-size="26" font-weight="600">WHO-GMP Compliant Manufacturing</text>
  </g>
  <g font-family="Segoe UI, Arial, sans-serif" fill="#0e4d92" text-anchor="middle">
    <rect x="330" y="712" width="540" height="56" rx="28" fill="#ffffff"/>
    <text x="600" y="748" font-size="24" font-weight="600">Facility image placeholder — replace with client photos</text>
  </g>
</svg>
